<?xml version="1.0" encoding="utf-8"?>
<!-- Generator: Adobe Illustrator 22.1.0, SVG Export Plug-In . SVG Version: 6.00 Build 0)  -->
<svg version="1.1" id="Laag_1" xmlns="http://www.w3.org/2000/svg" xmlns:xlink="http://www.w3.org/1999/xlink" x="0px" y="0px"
	 viewBox="0 0 187.1 33.9" style="enable-background:new 0 0 187.1 33.9;" xml:space="preserve">
<style type="text/css">
	.st0{fill-rule:evenodd;clip-rule:evenodd;fill:#CCCBCB;}
</style>
<g>
	<polygon class="st0" points="24.8,27.6 24.8,31.5 0,31.5 0,4.2 4.5,4.2 4.5,27.6 24.8,27.6 	"/>
	<polygon class="st0" points="21.4,14.2 26.3,4.7 21.6,4.7 17.9,14.2 21.4,14.2 	"/>
	<path class="st0" d="M62,8.7c-1.6-2.5-4-4.7-6.7-6.1c-2.8-1.5-6-2.2-9.1-2.2c-3.2,0-6.4,0.8-9.1,2.2c-2.8,1.5-5.1,3.6-6.7,6.1
		c-1.6,2.5-2.5,5.5-2.5,8.4c0,2.9,0.9,5.9,2.5,8.4c1.6,2.5,4,4.7,6.7,6.1c2.8,1.5,6,2.2,9.1,2.2c3.2,0,6.4-0.8,9.1-2.2
		c2.8-1.5,5.1-3.6,6.7-6.1c1.6-2.5,2.5-5.5,2.5-8.4C64.5,14.2,63.6,11.2,62,8.7L62,8.7L62,8.7L62,8.7z M58.1,23.8
		c-1.2,2-3,3.7-5,4.8c-2.1,1.1-4.5,1.8-6.9,1.8c-2.4,0-4.8-0.6-6.9-1.8c-2.1-1.1-3.8-2.8-5-4.8c-1.2-2-1.8-4.3-1.8-6.6
		c0-2.3,0.6-4.6,1.8-6.6c1.2-2,3-3.7,5-4.8c2.1-1.1,4.5-1.8,6.9-1.8c2.4,0,4.8,0.6,6.9,1.8c2.1,1.1,3.8,2.8,5,4.8
		c1.2,2,1.8,4.3,1.8,6.6C60,19.5,59.3,21.8,58.1,23.8L58.1,23.8L58.1,23.8L58.1,23.8z"/>
	<path class="st0" d="M95.7,16c-0.8,1.8-2.3,2.8-3.5,3.4c-1.2,0.6-2.1,0.8-2.9,0.8l0,0l8.7,11.3h-5l-8.4-10.9h-11v10.9h-4.5V4.2H87
		l0,0c1.8,0,3.6,0.4,5.3,1.3c1.6,0.9,3,2.3,3.7,4.2C96.6,11.7,96.5,14.2,95.7,16L95.7,16z M90.7,15.8c0.9-0.8,1.5-2.1,1.5-3.4
		c0-1.3-0.7-2.6-1.6-3.4c-0.9-0.8-2.1-0.8-3.3-0.8l0,0H73.5v8.4h13.7l0,0C88.4,16.6,89.7,16.6,90.7,15.8L90.7,15.8z"/>
	<polygon class="st0" points="121.5,15.9 121.5,19.6 106.3,19.6 106.3,27.6 126.7,27.6 126.7,31.5 101.9,31.5 101.9,4.2 126.7,4.2 
		126.7,8.2 106.3,8.2 106.3,15.9 121.5,15.9 	"/>
	<polygon class="st0" points="121.7,0 115,0 112.3,3.5 121.7,0 	"/>
	<path class="st0" d="M135.5,24.6l-3.5,7h-4.5l13.9-27.3h4.5l13.9,27.3h-4.5l-3.5-7H135.5L135.5,24.6z M143.6,8.6l-6.4,12.5H150
		L143.6,8.6L143.6,8.6z"/>
	<polygon class="st0" points="186.8,27.6 186.8,31.5 162,31.5 162,4.2 166.5,4.2 166.5,27.6 186.8,27.6 	"/>
	<path class="st0" d="M184.9,9.7l0-0.7l0,0c0-0.1,0-0.2,0-0.4c0-0.1-0.1-0.3-0.2-0.4c-0.1-0.1-0.2-0.1-0.3-0.2
		c0.2-0.1,0.3-0.2,0.5-0.4c0.1-0.2,0.2-0.4,0.2-0.7c0-0.3-0.1-0.5-0.2-0.8c-0.3-0.4-0.8-0.5-1.3-0.5l0,0h-2v4.6h0.8V8.5h1.1l0,0
		c0.1,0,0.3,0,0.5,0.1c0.3,0.3,0.2,0.8,0.2,1.1c0,0.2,0,0.4,0.1,0.6l0,0h0.9v-0.1l0,0C184.9,10.2,184.9,9.9,184.9,9.7L184.9,9.7
		L184.9,9.7L184.9,9.7z M184,7.7c-0.2,0.2-0.5,0.2-0.7,0.1l0,0h-1.1V6.5l0,0c0.5,0,0.9,0,1.4,0c0.2,0,0.4,0.1,0.5,0.4
		C184.2,7.1,184.2,7.5,184,7.7L184,7.7L184,7.7L184,7.7z"/>
	<path class="st0" d="M186.6,6.1c-0.3-0.6-0.8-1.1-1.4-1.4c-0.6-0.3-1.3-0.5-1.9-0.5c-0.7,0-1.3,0.2-1.9,0.5
		c-0.6,0.3-1.1,0.8-1.4,1.4c-0.3,0.6-0.5,1.3-0.5,1.9c0,0.7,0.2,1.3,0.5,1.9c0.3,0.6,0.8,1.1,1.4,1.4c0.6,0.3,1.3,0.5,1.9,0.5
		c0.7,0,1.3-0.2,1.9-0.5c0.6-0.3,1.1-0.8,1.4-1.4c0.3-0.6,0.5-1.3,0.5-1.9C187.1,7.4,186.9,6.7,186.6,6.1L186.6,6.1L186.6,6.1
		L186.6,6.1z M186.1,9.7c-0.3,0.5-0.7,0.9-1.2,1.2c-0.5,0.3-1.1,0.4-1.6,0.4c-0.6,0-1.1-0.2-1.6-0.4c-0.5-0.3-0.9-0.7-1.2-1.2
		c-0.3-0.5-0.4-1.1-0.4-1.6s0.2-1.1,0.4-1.6c0.3-0.5,0.7-0.9,1.2-1.2c0.5-0.3,1.1-0.4,1.6-0.4c0.6,0,1.1,0.2,1.6,0.4
		c0.5,0.3,0.9,0.7,1.2,1.2c0.3,0.5,0.4,1.1,0.4,1.6S186.4,9.3,186.1,9.7L186.1,9.7L186.1,9.7L186.1,9.7z"/>
</g>
</svg>
