<?xml version="1.0" encoding="utf-8"?>
<!-- Generator: Adobe Illustrator 22.1.0, SVG Export Plug-In . SVG Version: 6.00 Build 0)  -->
<svg version="1.1" id="Layer_1" xmlns="http://www.w3.org/2000/svg" xmlns:xlink="http://www.w3.org/1999/xlink" x="0px" y="0px"
	 viewBox="0 0 665.5 273.1" style="enable-background:new 0 0 665.5 273.1;" xml:space="preserve">
<style type="text/css">
	.Arched_x0020_Green{fill:url(#SVGID_1_);stroke:#FFFFFF;stroke-width:0.25;stroke-miterlimit:1;}
	.st0{fill:#CBCBCA;}
</style>
<linearGradient id="SVGID_1_" gradientUnits="userSpaceOnUse" x1="-24.8926" y1="396.8301" x2="-24.1855" y2="396.123">
	<stop  offset="0" style="stop-color:#20AC4B"/>
	<stop  offset="0.9831" style="stop-color:#19361A"/>
</linearGradient>
<g>
	<g>
		<path class="st0" d="M3,156.4h8.1v49.9h25.5v7.5H3V156.4z"/>
		<path class="st0" d="M61.8,156.1h5.7l25.4,57.7h-8.3l-7.5-17H52.8l-7.1,17h-8.3L61.8,156.1z M73.7,189.5l-9.1-20.8l-8.5,20.8H73.7
			z"/>
		<path class="st0" d="M122.3,213.8v-57.4h14.2c5.7,0,10.3,1.4,13.6,4.3c3.4,2.9,5,6.8,5,11.7c0,3.3-0.8,6.2-2.5,8.7
			c-1.6,2.4-4,4.3-7.1,5.5c1.8,1.2,3.6,2.8,5.3,4.9c1.7,2.1,4.2,5.7,7.3,10.9c2,3.3,3.6,5.7,4.7,7.4l3,4.1h-9.6l-2.5-3.8
			c-0.1-0.1-0.2-0.4-0.5-0.7l-1.6-2.3l-2.5-4.2l-2.7-4.5c-1.7-2.4-3.2-4.2-4.6-5.6c-1.4-1.4-2.7-2.4-3.8-3c-1.1-0.6-3-0.9-5.7-0.9
			h-2.1v25H122.3z M132.8,163.4h-2.4v18.1h3.1c4.1,0,6.9-0.4,8.4-1.1c1.5-0.7,2.7-1.8,3.6-3.2c0.9-1.4,1.3-3.1,1.3-4.9
			c0-1.8-0.5-3.4-1.4-4.9c-0.9-1.5-2.3-2.5-4-3.1C139.7,163.7,136.8,163.4,132.8,163.4z"/>
		<path class="st0" d="M195,155.6c8.7,0,16,2.8,21.8,8.4c5.8,5.6,8.7,12.7,8.7,21.1c0,8.5-2.9,15.5-8.8,21
			c-5.9,5.5-13.3,8.3-22.2,8.3c-8.5,0-15.6-2.8-21.3-8.3c-5.7-5.5-8.5-12.5-8.5-20.9c0-8.6,2.9-15.7,8.6-21.3
			C179,158.4,186.2,155.6,195,155.6z M195.3,163.4c-6.5,0-11.8,2.1-16,6.2c-4.2,4.1-6.3,9.4-6.3,15.7c0,6.2,2.1,11.3,6.3,15.5
			c4.2,4.1,9.4,6.2,15.7,6.2c6.3,0,11.6-2.1,15.8-6.3c4.2-4.2,6.3-9.4,6.3-15.7c0-6.1-2.1-11.2-6.3-15.3
			C206.6,165.5,201.4,163.4,195.3,163.4z"/>
		<path class="st0" d="M284.3,200.5v9c-5.9,3.3-12.8,4.9-20.6,4.9c-6.3,0-11.7-1.3-16.1-3.9c-4.4-2.6-7.9-6.1-10.5-10.6
			c-2.6-4.5-3.8-9.4-3.8-14.7c0-8.4,2.9-15.4,8.8-21.1c5.9-5.7,13.1-8.5,21.7-8.5c5.9,0,12.5,1.6,19.8,4.7v8.8
			c-6.6-3.8-13.1-5.8-19.4-5.8c-6.5,0-11.9,2.1-16.1,6.2c-4.3,4.2-6.4,9.3-6.4,15.6c0,6.3,2.1,11.5,6.3,15.5
			c4.2,4.1,9.6,6.1,16.2,6.1C271,206.9,277.7,204.8,284.3,200.5z"/>
		<path class="st0" d="M334.1,156.4h8.1v57.4h-8.1v-25h-31.8v25h-8.1v-57.4h8.1v24.8h31.8V156.4z"/>
		<path class="st0" d="M354.7,156.4h32.1v7.3h-24v17.5H386v7.4h-23.2v17.8h24.7v7.3h-32.9V156.4z"/>
		<path class="st0" d="M393.3,191.2h20.2v8h-20.2V191.2z"/>
		<path class="st0" d="M422.6,213.8v-57.5h17.9c5.4,0,9.7,1.5,12.9,4.4c3.2,3,4.8,6.9,4.8,11.9c0,3.3-0.8,6.3-2.5,8.9
			c-1.6,2.6-3.9,4.4-6.8,5.6c-2.9,1.2-7,1.7-12.3,1.7h-6v24.9H422.6z M439.1,163.6h-8.4v18h8.9c3.3,0,5.8-0.8,7.6-2.4
			c1.8-1.6,2.7-3.8,2.7-6.8C449.9,166.6,446.3,163.6,439.1,163.6z"/>
		<path class="st0" d="M493.1,155.6c8.7,0,16,2.8,21.8,8.4c5.8,5.6,8.7,12.7,8.7,21.1c0,8.5-2.9,15.5-8.8,21
			c-5.9,5.5-13.3,8.3-22.2,8.3c-8.5,0-15.6-2.8-21.3-8.3c-5.7-5.5-8.5-12.5-8.5-20.9c0-8.6,2.9-15.7,8.6-21.3
			C477.1,158.4,484.3,155.6,493.1,155.6z M493.4,163.4c-6.5,0-11.8,2.1-16,6.2c-4.2,4.1-6.3,9.4-6.3,15.7c0,6.2,2.1,11.3,6.3,15.5
			c4.2,4.1,9.4,6.2,15.7,6.2c6.3,0,11.6-2.1,15.8-6.3c4.2-4.2,6.3-9.4,6.3-15.7c0-6.1-2.1-11.2-6.3-15.3
			C504.7,165.5,499.5,163.4,493.4,163.4z"/>
		<path class="st0" d="M547.6,189.7l-6.2-3.8c-3.9-2.4-6.6-4.7-8.2-7.1c-1.6-2.3-2.4-5-2.4-8c0-4.5,1.5-8.2,4.6-11
			c3.1-2.8,7.1-4.2,12.1-4.2c4.7,0,9.1,1.3,13,4v9.3c-4.1-4-8.5-6-13.2-6c-2.6,0-4.8,0.6-6.5,1.9c-1.7,1.2-2.6,2.8-2.6,4.8
			c0,1.7,0.6,3.3,1.9,4.8c1.3,1.5,3.3,3.1,6,4.7l6.2,3.7c6.9,4.2,10.4,9.5,10.4,16c0,4.6-1.5,8.3-4.6,11.2c-3,2.9-7,4.3-11.8,4.3
			c-5.6,0-10.7-1.7-15.3-5.2v-10.4c4.4,5.6,9.4,8.4,15.2,8.4c2.5,0,4.6-0.7,6.3-2.1c1.7-1.4,2.5-3.2,2.5-5.4
			C555.1,196.2,552.6,192.9,547.6,189.7z"/>
		<path class="st0" d="M589.7,156.1h5.7l25.4,57.7h-8.3l-7.5-17h-24.1l-7.1,17h-8.3L589.7,156.1z M601.6,189.5l-9.1-20.8l-8.5,20.8
			H601.6z"/>
		<path class="st0" d="M651.9,156.4h9.8l-20.9,27v30.4h-8.3v-30.4l-20.9-27h9.8l15.1,19.8L651.9,156.4z"/>
	</g>
	<g>
		<path class="st0" d="M0,233.8h4.2V262h13.2v4.2H0V233.8z"/>
		<path class="st0" d="M30.4,233.6h2.9l13.1,32.7h-4.3l-3.9-9.6H25.8l-3.7,9.6h-4.3L30.4,233.6z M36.6,252.5l-4.7-11.8l-4.4,11.8
			H36.6z"/>
		<path class="st0" d="M59.6,266.2h-9.9v-32.5h7.7c2.4,0,4.3,0.4,5.7,1.1c1.4,0.7,2.4,1.7,3.1,3c0.7,1.3,1.1,2.7,1.1,4.4
			c0,3.2-1.5,5.5-4.5,6.9c2.1,0.5,3.8,1.4,5.1,2.9c1.3,1.5,1.9,3.3,1.9,5.4c0,1.7-0.4,3.1-1.2,4.4c-0.8,1.3-1.9,2.4-3.4,3.2
			C63.7,265.8,61.8,266.2,59.6,266.2z M57.5,237.9h-3.6v9.8h2.8c2.2,0,3.8-0.5,4.8-1.4c0.9-0.9,1.4-2.2,1.4-3.7
			C62.8,239.5,61.1,237.9,57.5,237.9z M57.8,251.8h-3.9v10.3H58c2.3,0,3.8-0.2,4.7-0.6c0.8-0.4,1.5-1,2-1.8c0.5-0.8,0.7-1.7,0.7-2.7
			c0-1-0.3-1.9-0.8-2.7c-0.5-0.8-1.3-1.4-2.2-1.8C61.4,252,59.9,251.8,57.8,251.8z"/>
		<path class="st0" d="M88.2,233.3c4.5,0,8.3,1.6,11.3,4.8c3,3.2,4.5,7.2,4.5,11.9c0,4.8-1.5,8.8-4.6,11.9c-3,3.1-6.9,4.7-11.5,4.7
			c-4.4,0-8.1-1.6-11-4.7c-2.9-3.1-4.4-7.1-4.4-11.8c0-4.9,1.5-8.9,4.4-12C79.9,234.9,83.7,233.3,88.2,233.3z M88.4,237.7
			c-3.4,0-6.1,1.2-8.3,3.5c-2.2,2.3-3.2,5.3-3.2,8.9c0,3.5,1.1,6.4,3.2,8.7c2.2,2.3,4.9,3.5,8.1,3.5c3.3,0,6-1.2,8.2-3.6
			c2.2-2.4,3.3-5.3,3.3-8.9c0-3.4-1.1-6.3-3.3-8.7C94.2,238.9,91.6,237.7,88.4,237.7z"/>
		<path class="st0" d="M109.3,266.2v-32.5h7.3c3,0,5.3,0.8,7.1,2.4c1.7,1.6,2.6,3.8,2.6,6.6c0,1.9-0.4,3.5-1.3,4.9
			c-0.9,1.4-2.1,2.4-3.7,3.1c0.9,0.7,1.9,1.6,2.7,2.8c0.9,1.2,2.2,3.2,3.8,6.2c1,1.8,1.8,3.2,2.5,4.2l1.6,2.3h-5l-1.3-2.1
			c0-0.1-0.1-0.2-0.3-0.4l-0.8-1.3l-1.3-2.4l-1.4-2.5c-0.9-1.3-1.7-2.4-2.4-3.2c-0.7-0.8-1.4-1.4-2-1.7c-0.6-0.3-1.6-0.5-2.9-0.5
			h-1.1v14.1H109.3z M114.8,237.7h-1.3V248h1.6c2.1,0,3.6-0.2,4.4-0.6c0.8-0.4,1.4-1,1.8-1.8c0.4-0.8,0.7-1.7,0.7-2.8
			c0-1-0.2-1.9-0.7-2.8c-0.5-0.8-1.2-1.4-2.1-1.8C118.3,237.9,116.8,237.7,114.8,237.7z"/>
		<path class="st0" d="M144.5,233.6h2.9l13.1,32.7h-4.3l-3.9-9.6h-12.5l-3.7,9.6h-4.3L144.5,233.6z M150.6,252.5l-4.7-11.8
			l-4.4,11.8H150.6z"/>
		<path class="st0" d="M157,233.7h24.5v4.1h-10.2v28.4H167v-28.4h-10V233.7z"/>
		<path class="st0" d="M197,233.3c4.5,0,8.3,1.6,11.3,4.8c3,3.2,4.5,7.2,4.5,11.9c0,4.8-1.5,8.8-4.6,11.9c-3,3.1-6.9,4.7-11.5,4.7
			c-4.4,0-8.1-1.6-11-4.7c-2.9-3.1-4.4-7.1-4.4-11.8c0-4.9,1.5-8.9,4.4-12C188.7,234.9,192.4,233.3,197,233.3z M197.1,237.7
			c-3.4,0-6.1,1.2-8.3,3.5c-2.2,2.3-3.2,5.3-3.2,8.9c0,3.5,1.1,6.4,3.2,8.7c2.2,2.3,4.9,3.5,8.1,3.5c3.3,0,6-1.2,8.2-3.6
			c2.2-2.4,3.3-5.3,3.3-8.9c0-3.4-1.1-6.3-3.3-8.7C203,238.9,200.3,237.7,197.1,237.7z"/>
		<path class="st0" d="M218,233.8h4.2v32.5H218V233.8z"/>
		<path class="st0" d="M228.8,266.2v-32.5h7.3c3,0,5.3,0.8,7.1,2.4c1.7,1.6,2.6,3.8,2.6,6.6c0,1.9-0.4,3.5-1.3,4.9
			c-0.9,1.4-2.1,2.4-3.7,3.1c0.9,0.7,1.9,1.6,2.7,2.8c0.9,1.2,2.2,3.2,3.8,6.2c1,1.8,1.8,3.2,2.5,4.2l1.6,2.3h-5l-1.3-2.1
			c0-0.1-0.1-0.2-0.3-0.4l-0.8-1.3l-1.3-2.4l-1.4-2.5c-0.9-1.3-1.7-2.4-2.4-3.2c-0.7-0.8-1.4-1.4-2-1.7c-0.6-0.3-1.6-0.5-2.9-0.5
			H233v14.1H228.8z M234.2,237.7H233V248h1.6c2.1,0,3.6-0.2,4.4-0.6c0.8-0.4,1.4-1,1.8-1.8c0.4-0.8,0.7-1.7,0.7-2.8
			c0-1-0.2-1.9-0.7-2.8c-0.5-0.8-1.2-1.4-2.1-1.8C237.8,237.9,236.3,237.7,234.2,237.7z"/>
		<path class="st0" d="M254.6,233.8h16.6v4.1h-12.4v9.9h12v4.2h-12v10.1h12.8v4.1h-17V233.8z"/>
		<path class="st0" d="M288,266.2v-32.4h9.9c4,0,7.1,0.7,9.5,2c2.3,1.3,4.2,3.3,5.5,5.8c1.4,2.6,2.1,5.4,2.1,8.4
			c0,2.2-0.4,4.2-1.1,6.2c-0.8,2-1.8,3.7-3.2,5.2c-1.4,1.5-3.1,2.7-5,3.5c-1.1,0.5-2.1,0.8-3,1c-0.9,0.2-2.7,0.2-5.3,0.2H288z
			 M297.4,237.9h-5.2v24.2h5.4c2.1,0,3.7-0.2,4.9-0.5c1.2-0.3,2.1-0.7,2.9-1.2c0.8-0.5,1.5-1.1,2.1-1.8c2.1-2.3,3.1-5.3,3.1-8.8
			c0-3.5-1.1-6.3-3.2-8.5c-0.8-0.8-1.7-1.5-2.7-2c-1-0.5-2-0.9-2.9-1C300.9,238,299.5,237.9,297.4,237.9z"/>
		<path class="st0" d="M320.2,233.8h16.6v4.1h-12.4v9.9h12v4.2h-12v10.1h12.8v4.1h-17V233.8z"/>
		<path class="st0" d="M341.8,266.2v-32.5h7.3c3,0,5.3,0.8,7.1,2.4c1.7,1.6,2.6,3.8,2.6,6.6c0,1.9-0.4,3.5-1.3,4.9
			c-0.9,1.4-2.1,2.4-3.7,3.1c0.9,0.7,1.9,1.6,2.7,2.8c0.9,1.2,2.2,3.2,3.8,6.2c1,1.8,1.8,3.2,2.5,4.2l1.5,2.3h-5l-1.3-2.1
			c0-0.1-0.1-0.2-0.3-0.4l-0.8-1.3l-1.3-2.4l-1.4-2.5c-0.9-1.3-1.7-2.4-2.4-3.2c-0.7-0.8-1.4-1.4-2-1.7c-0.6-0.3-1.6-0.5-2.9-0.5
			H346v14.1H341.8z M347.2,237.7H346V248h1.6c2.1,0,3.6-0.2,4.4-0.6c0.8-0.4,1.4-1,1.8-1.8c0.4-0.8,0.7-1.7,0.7-2.8
			c0-1-0.2-1.9-0.7-2.8c-0.5-0.8-1.2-1.4-2.1-1.8C350.7,237.9,349.3,237.7,347.2,237.7z"/>
		<path class="st0" d="M390.8,233.8h3.9v32.5h-4.2V241l-9,12.6h-0.8l-9.1-12.6v25.3h-4.2v-32.5h4l9.7,13.3L390.8,233.8z"/>
		<path class="st0" d="M410.4,233.6h2.9l13.1,32.7h-4.3l-3.9-9.6h-12.5l-3.7,9.6h-4.3L410.4,233.6z M416.6,252.5l-4.7-11.8
			l-4.4,11.8H416.6z"/>
		<path class="st0" d="M422.9,233.7h24.5v4.1h-10.2v28.4H433v-28.4h-10V233.7z"/>
		<path class="st0" d="M462.9,233.3c4.5,0,8.3,1.6,11.3,4.8c3,3.2,4.5,7.2,4.5,11.9c0,4.8-1.5,8.8-4.6,11.9c-3,3.1-6.9,4.7-11.5,4.7
			c-4.4,0-8.1-1.6-11-4.7c-2.9-3.1-4.4-7.1-4.4-11.8c0-4.9,1.5-8.9,4.4-12C454.7,234.9,458.4,233.3,462.9,233.3z M463.1,237.7
			c-3.4,0-6.1,1.2-8.3,3.5c-2.2,2.3-3.2,5.3-3.2,8.9c0,3.5,1.1,6.4,3.2,8.7c2.2,2.3,4.9,3.5,8.1,3.5c3.3,0,6-1.2,8.2-3.6
			c2.2-2.4,3.3-5.3,3.3-8.9c0-3.4-1.1-6.3-3.3-8.7C469,238.9,466.3,237.7,463.1,237.7z"/>
		<path class="st0" d="M483.9,233.8h4.2V262h13.2v4.2h-17.4V233.8z"/>
		<path class="st0" d="M519.3,233.3c4.5,0,8.3,1.6,11.3,4.8c3,3.2,4.5,7.2,4.5,11.9c0,4.8-1.5,8.8-4.6,11.9c-3,3.1-6.9,4.7-11.5,4.7
			c-4.4,0-8.1-1.6-11-4.7c-2.9-3.1-4.4-7.1-4.4-11.8c0-4.9,1.5-8.9,4.4-12C511,234.9,514.8,233.3,519.3,233.3z M519.5,237.7
			c-3.4,0-6.1,1.2-8.3,3.5c-2.2,2.3-3.2,5.3-3.2,8.9c0,3.5,1.1,6.4,3.2,8.7c2.2,2.3,4.9,3.5,8.1,3.5c3.3,0,6-1.2,8.2-3.6
			c2.2-2.4,3.3-5.3,3.3-8.9c0-3.4-1.1-6.3-3.3-8.7C525.3,238.9,522.7,237.7,519.5,237.7z"/>
		<path class="st0" d="M556.1,250.3h9.8V264c-3.6,1.7-7.2,2.6-10.7,2.6c-4.8,0-8.7-1.6-11.6-4.7c-2.9-3.1-4.3-7-4.3-11.6
			c0-4.8,1.5-8.9,4.5-12.1c3-3.2,6.8-4.8,11.3-4.8c1.6,0,3.2,0.2,4.7,0.6c1.5,0.4,3.4,1.1,5.6,2.2v4.7c-3.5-2.2-7-3.4-10.4-3.4
			c-3.2,0-5.9,1.2-8.1,3.6c-2.2,2.4-3.3,5.4-3.3,8.9c0,3.7,1.1,6.7,3.3,9c2.2,2.3,5,3.5,8.5,3.5c1.7,0,3.7-0.4,6-1.3l0.4-0.1v-6.8
			h-5.6V250.3z"/>
		<path class="st0" d="M572.1,233.8h4.2v32.5h-4.2V233.8z"/>
		<path class="st0" d="M612.3,268.3l-4.2,4.5c-1.3-0.1-2.7-0.3-4.1-0.8c-1.4-0.4-2.9-1.1-4.4-1.8c-1.5-0.8-3.4-2.1-5.9-4
			c-3.6-0.7-6.5-2.6-8.8-5.6c-2.3-3-3.5-6.5-3.5-10.5c0-4.9,1.5-8.9,4.5-12c3-3.2,6.7-4.8,11.3-4.8c4.5,0,8.3,1.6,11.3,4.7
			c3,3.2,4.5,7.1,4.5,11.9c0,4-1.1,7.5-3.4,10.6c-2.3,3-5.2,5-8.8,5.7l1.1,0.5c3.5,1.5,5.9,2.2,7.5,2.2
			C610.2,268.9,611.2,268.7,612.3,268.3z M597.2,237.7c-3.3,0-6,1.2-8.2,3.5c-2.2,2.4-3.2,5.3-3.2,8.9c0,3.5,1.1,6.4,3.2,8.7
			c2.2,2.3,4.9,3.5,8.1,3.5c3.2,0,5.9-1.2,8.1-3.6c2.2-2.4,3.3-5.3,3.3-8.8c0-3.5-1.1-6.5-3.2-8.8
			C603.2,238.9,600.5,237.7,597.2,237.7z"/>
		<path class="st0" d="M638.5,233.8h4.2v18.4c0,2.5-0.2,4.4-0.5,5.6c-0.3,1.3-0.7,2.3-1.2,3.2c-0.5,0.8-1.1,1.6-1.8,2.3
			c-2.3,2.2-5.4,3.3-9.1,3.3c-3.8,0-6.9-1.1-9.2-3.3c-0.7-0.7-1.3-1.4-1.8-2.3c-0.5-0.8-0.9-1.9-1.2-3.1c-0.3-1.2-0.5-3.1-0.5-5.8
			v-18.4h4.2v18.4c0,3.1,0.3,5.2,0.9,6.4c0.6,1.2,1.6,2.2,2.9,2.9c1.3,0.7,2.8,1.1,4.5,1.1c2.5,0,4.5-0.7,6.1-2.2
			c0.8-0.8,1.4-1.7,1.8-2.7c0.4-1.1,0.5-2.9,0.5-5.4V233.8z"/>
		<path class="st0" d="M648.5,233.8h16.6v4.1h-12.4v9.9h12v4.2h-12v10.1h12.8v4.1h-17V233.8z"/>
	</g>
	<rect x="281.9" class="st0" width="106.4" height="136.3"/>
</g>
</svg>
