<?xml version="1.0" encoding="utf-8"?>
<!-- Generator: Adobe Illustrator 22.1.0, SVG Export Plug-In . SVG Version: 6.00 Build 0)  -->
<svg version="1.1" id="Laag_1" xmlns="http://www.w3.org/2000/svg" xmlns:xlink="http://www.w3.org/1999/xlink" x="0px" y="0px"
	 viewBox="0 0 175.7 35.6" style="enable-background:new 0 0 175.7 35.6;" xml:space="preserve">
<style type="text/css">
	.st0{fill-rule:evenodd;clip-rule:evenodd;fill:#CCCBCB;}
</style>
<g>
	<path class="st0" d="M22.5,18.3l8,10.2c4.1,5.1,13.1,7.5,19.6,4.9l0.1,0.1c-7.4,3.9-17.2,1.9-23.4-3.1c-4.4-3.4-6.9-8.2-10.5-12.1
		v8.1c0,0.7,0.4,1.2,0.4,1.2l-3.2,0c0,0,0.4-0.5,0.4-1.2V7.3C16.9,11,19.5,14.5,22.5,18.3L22.5,18.3z"/>
	<path class="st0" d="M170.9,25.4c0-1.3,1.1-2.4,2.4-2.4c1.3,0,2.4,1.1,2.4,2.4c0,1.3-1.1,2.4-2.4,2.4
		C172,27.8,170.9,26.8,170.9,25.4L170.9,25.4z M173.3,27.6c1.2,0,2.2-1,2.2-2.2c0-1.2-1-2.2-2.2-2.2c-1.2,0-2.2,1-2.2,2.2
		C171.2,26.6,172.1,27.6,173.3,27.6L173.3,27.6z"/>
	<path class="st0" d="M172.3,24h1.3c0.6,0,0.9,0.3,0.9,0.7c0,0.5-0.4,0.7-0.4,0.7v0c0.2,0,0.4,0.1,0.4,0.6c0,0.3,0,0.6,0.1,0.7h-0.5
		c-0.1-0.1-0.1-0.3-0.1-0.4c0-0.5-0.1-0.7-0.5-0.7h-0.7v1.1h-0.5V24L172.3,24z M172.8,25.2h0.8c0.3,0,0.5-0.1,0.5-0.4
		c0-0.3-0.2-0.4-0.5-0.4h-0.8V25.2L172.8,25.2z"/>
	<path class="st0" d="M161.1,27.9c-1.2,0-9.7-0.3-9.7-9.9c0-9.6,8.4-9.8,9.7-9.8c1.3,0,9.7,0.1,9.7,9.8
		C170.9,27.6,162.4,27.9,161.1,27.9L161.1,27.9z M161.2,25.2c0.5,0,4.5,0.2,4.4-7.6c0-7.2-3.8-7-4.5-7h0c-0.6,0-4.4-0.2-4.5,7
		C156.6,25.4,160.6,25.2,161.2,25.2L161.2,25.2L161.2,25.2z"/>
	<path class="st0" d="M149,9.3l0,2.4c-1-0.4-1.5-0.7-2.6-1c-0.8-0.2-4.4-1-6,0.8c-0.7,0.7-0.9,2,0.5,3.1c2,1.3,4.9,1.9,7.2,3.8
		c1.5,1.2,2,2.6,1.6,4.8c-0.4,2.2-2.8,4-5,4.5c-3.2,0.7-6.7,0.3-9.6-0.8l0-2.4c2.6,1.1,6.6,2.5,9.1,0.3c0.7-0.6,1.1-1.5,0.7-2.5
		c-0.6-1.7-5.2-2.7-8.1-4.8c-2.8-1.7-2.6-4.7-1.6-6.3C138.1,7.1,144.8,8.2,149,9.3L149,9.3z"/>
	<path class="st0" d="M132.7,9.3l0,2.4c-1-0.4-1.5-0.7-2.6-1c-0.8-0.2-4.4-1-6,0.8c-0.7,0.7-0.9,2,0.5,3.1c2,1.3,4.9,1.9,7.2,3.8
		c1.5,1.2,2,2.6,1.6,4.8c-0.4,2.2-2.8,4-5,4.5c-3.2,0.7-6.7,0.3-9.6-0.8l0-2.4c2.6,1.1,6.6,2.5,9.1,0.3c0.7-0.6,1.1-1.5,0.7-2.5
		c-0.6-1.7-5.2-2.7-8.1-4.8c-2.8-1.7-2.6-4.7-1.6-6.3C121.8,7.1,128.5,8.2,132.7,9.3L132.7,9.3z"/>
	<path class="st0" d="M66.1,9.3l0,2.4c-1-0.4-1.5-0.7-2.6-1c-0.8-0.2-4.4-1-6,0.8c-0.7,0.7-0.9,2,0.5,3.1c2,1.3,4.9,1.9,7.2,3.8
		c1.5,1.2,2,2.6,1.6,4.8c-0.4,2.2-2.8,4-5,4.5c-3.2,0.7-6.7,0.3-9.6-0.8l0-2.4c2.6,1.1,6.6,2.5,9.1,0.3c0.7-0.6,1.1-1.5,0.7-2.5
		c-0.6-1.7-5.2-2.7-8.1-4.8c-2.8-1.7-2.6-4.7-1.6-6.3C55.1,7.1,61.9,8.2,66.1,9.3L66.1,9.3z"/>
	<path class="st0" d="M24.5,17.8c3,3.9,5.6,7.4,8.6,11V9.7c0-0.7,0.4-1.2,0.4-1.2l-3.2,0c0,0,0.4,0.5,0.4,1.2v8.1
		c-2.7-2.9-4.8-6.3-7.5-9.3c-0.3-0.4-2.7-2.9-3.4-3.5C15.1,0.3,7.3-1.6,0,1.5l0.1,0.1c2.5-0.9,6.1-0.8,9.6,0.6
		c2.3,0.8,4.2,2,6.1,4.3C16.2,7.2,24.5,17.8,24.5,17.8L24.5,17.8z"/>
	<path class="st0" d="M42.1,25.6c2.6,0.3,5.7-0.1,8.2-0.2l0,2.1H36.7c0,0,0.4-0.5,0.4-1.2V9.7c0-0.7-0.4-1.2-0.4-1.2h13.6l0,2.1
		c-2.5-0.1-5.7-0.5-8.2-0.2c0,0,0,5.9,0,6.3c2.1,0.1,4.6,0.2,6.6-0.1v2.3c-1.9-0.2-4.5-0.2-6.6-0.1l0,0.7L42.1,25.6L42.1,25.6z"/>
	<path class="st0" d="M108.8,25.6c2.6,0.3,5.7-0.1,8.2-0.2l0,2.1h-13.6c0,0,0.4-0.5,0.4-1.2V9.7c0-0.7-0.4-1.2-0.4-1.2H117l0,2.1
		c-2.5-0.1-5.7-0.5-8.2-0.2c0,0,0,5.9,0,6.3c2.1,0.1,4.6,0.2,6.6-0.1v2.3c-1.9-0.2-4.5-0.2-6.6-0.1l0,0.7L108.8,25.6L108.8,25.6z"/>
	<path class="st0" d="M90.3,19.7l0,6.7c0,0.7,0.4,1.2,0.4,1.2l-5.8,0c0,0,0.4-0.5,0.4-1.2V9.7C85.4,9,85,8.5,85,8.5l9.9,0
		c2.7,0.1,5.5,1.6,5.6,4.8c0,2.6-1.1,4.2-2.9,5c-0.3,0.2-0.3,0.1-0.4,0.2c1.2,2.9,2.4,5,3.9,7.8c0.3,0.7,0.9,1.2,0.9,1.2h-6
		c0,0,0.4-0.5,0-1.2c0,0-2.1-5-3.1-6.7L90.3,19.7L90.3,19.7z M90.3,10.9v6.4c1.6,0,3.6,0.2,4.8-1.1c1-1.3,0.8-3,0.2-4.1
		C94.1,10.2,90.3,10.9,90.3,10.9L90.3,10.9z"/>
	<path class="st0" d="M74,26.4c0,0.7,0.4,1.2,0.4,1.2l-5.8,0c0,0,0.4-0.5,0.4-1.2V9.7c0-0.7-0.4-1.2-0.4-1.2h9.6
		c2.4,0.1,4.3,1.2,5.1,3.5c0.6,2.1,0.5,4.7-0.9,6.4C80.4,21,74,20.6,74,20.6L74,26.4L74,26.4z M74,10.9l0,7.2c1.7,0.1,3.6,0.3,4.8-1
		c1-1.3,0.8-3.8,0.2-4.9C77.8,10.2,74,10.9,74,10.9L74,10.9z"/>
</g>
</svg>
