<?xml version="1.0" encoding="utf-8"?>
<!-- Generator: Adobe Illustrator 22.1.0, SVG Export Plug-In . SVG Version: 6.00 Build 0)  -->
<svg version="1.1" id="Laag_1" xmlns="http://www.w3.org/2000/svg" xmlns:xlink="http://www.w3.org/1999/xlink" x="0px" y="0px"
	 viewBox="0 0 335.1 97" style="enable-background:new 0 0 335.1 97;" xml:space="preserve">
<style type="text/css">
	.st0{fill-rule:evenodd;clip-rule:evenodd;fill:#CCCBCB;}
	.st1{fill:#CCCBCB;}
</style>
<g>
	<polygon class="st0" points="239.7,71.3 239.7,39.4 199,39.4 199,71.3 187.4,71.3 187.4,0 199,0 199,30.6 239.7,30.6 239.7,0 
		251.3,0 251.3,71.3 239.7,71.3 	"/>
	<path class="st0" d="M65.8,97h1.8l-6.3-14.9L55,97h1.8l1.6-4.1h5.8L65.8,97L65.8,97z M59,91.6l2.3-5.9l2.3,5.9H59L59,91.6z"/>
	<path class="st0" d="M168.2,97h1.8l-6.3-14.9L157.3,97h1.8l1.6-4.1h5.8L168.2,97L168.2,97z M161.3,91.6l2.3-5.9l2.3,5.9H161.3
		L161.3,91.6z"/>
	<polygon class="st1" points="233.1,83 233.1,97 234.9,97 234.9,83 233.1,83 	"/>
	<polygon class="st1" points="86.1,0 86.1,71.3 97.7,71.3 97.7,0 86.1,0 	"/>
	<path class="st1" d="M57.9,0L35.1,48.3C35.2,48.2,12,0,12,0H0l35,71.3L69.9,0H57.9L57.9,0z"/>
	<path class="st1" d="M151.8,61.7c-17,0-29.5-10.9-29.5-26.1c0-15.2,12.4-26.1,29.5-26.1c7.5,0,14.4,2.4,19.7,6.3V4.6
		C165.7,1.7,159,0,151.8,0c-22.1,0-40,16-40,35.6c0,19.7,17.9,35.6,40,35.6c7.2,0,13.9-1.7,19.7-4.6V55.4
		C166.2,59.4,159.3,61.7,151.8,61.7L151.8,61.7z"/>
	<path class="st1" d="M84.8,90.2v5.4h1.8c2.4,0,3.4-1,3.4-2.7c0-1.7-1.1-2.8-3.6-2.8H84.8L84.8,90.2z M84.8,84.3v4.5h0.8
		c1.1,0,1.8-0.1,2.3-0.4c0.6-0.4,1-0.7,1-1.7c0-1-0.3-1.7-0.9-2c-0.4-0.2-1.2-0.4-2.3-0.4H84.8L84.8,84.3z M83.5,97V83h2.3
		c3.1,0,4.7,1.3,4.7,3.8c0,1.2-0.5,2.1-1.4,2.7c0.8,0.2,1.5,0.6,1.9,1.3c0.5,0.7,0.6,1.4,0.6,2.3c0,1.3-0.5,2.3-1.5,3
		c-0.9,0.6-1.9,0.9-3.4,0.9H83.5L83.5,97z"/>
	<path class="st1" d="M114.4,84c-1.6,0-3,0.6-4.2,1.7c-1.1,1.1-1.7,2.5-1.7,4.1c0,1.6,0.6,2.9,1.7,4.1c1.1,1.1,2.5,1.7,4.2,1.7
		c1.6,0,3-0.6,4.2-1.7c1.1-1.1,1.7-2.5,1.7-4.1c0-1.6-0.6-3-1.7-4.1C117.4,84.5,116.1,84,114.4,84L114.4,84z M114.4,82.5
		c2.1,0,3.8,0.7,5.3,2.1c1.5,1.4,2.2,3.1,2.2,5.1c0,2-0.7,3.7-2.2,5.1c-1.5,1.4-3.2,2.1-5.3,2.1c-2.1,0-3.8-0.7-5.3-2.1
		c-1.5-1.4-2.2-3.1-2.2-5.1c0-2,0.7-3.7,2.2-5.1C110.6,83.2,112.4,82.5,114.4,82.5L114.4,82.5z"/>
	<path class="st1" d="M210.1,84c-1.6,0-3,0.6-4.2,1.7c-1.1,1.1-1.7,2.5-1.7,4.1c0,1.6,0.6,2.9,1.7,4.1c1.1,1.1,2.5,1.7,4.2,1.7
		c1.6,0,3-0.6,4.2-1.7c1.1-1.1,1.7-2.5,1.7-4.1c0-1.6-0.6-3-1.7-4.1C213.1,84.5,211.7,84,210.1,84L210.1,84z M210.1,82.5
		c2.1,0,3.8,0.7,5.3,2.1c1.5,1.4,2.2,3.1,2.2,5.1c0,2-0.7,3.7-2.2,5.1c-1.5,1.4-3.2,2.1-5.3,2.1c-2.1,0-3.8-0.7-5.3-2.1
		c-1.5-1.4-2.2-3.1-2.2-5.1c0-2,0.7-3.7,2.2-5.1C206.2,83.2,208,82.5,210.1,82.5L210.1,82.5z"/>
	<path class="st1" d="M305.1,84.7l-1.2,0.8c-0.6-1-1.4-1.5-2.4-1.5c-0.6,0-1.2,0.2-1.6,0.6c-0.5,0.4-0.7,0.9-0.7,1.6
		c0,0.5,0.2,1,0.7,1.4c0.3,0.2,0.8,0.5,1.4,0.8l0.9,0.4c1.1,0.5,1.9,1,2.4,1.4c0.7,0.7,1,1.5,1,2.5c0,1.2-0.4,2.2-1.3,3.1
		c-0.9,0.8-1.9,1.3-3.1,1.3c-1.1,0-2.1-0.3-2.8-1c-0.8-0.7-1.3-1.5-1.5-2.6l1.5-0.4c0.1,0.7,0.4,1.3,0.9,1.8
		c0.5,0.5,1.1,0.8,1.9,0.8c0.8,0,1.4-0.3,2-0.8c0.6-0.5,0.9-1.2,0.9-1.9c0-0.7-0.3-1.3-0.8-1.8c-0.3-0.3-0.9-0.6-1.8-1l-0.8-0.4
		c-1-0.4-1.7-0.8-2.1-1.3c-0.6-0.6-0.9-1.4-0.9-2.3c0-1,0.4-1.9,1.2-2.6c0.7-0.6,1.6-1,2.7-1C303.1,82.5,304.3,83.3,305.1,84.7
		L305.1,84.7z"/>
	<polygon class="st1" points="275.6,97 275.6,83 283.3,83 283.3,84.4 277.2,84.4 277.2,88.6 282.8,88.6 282.8,90.1 277.2,90.1 
		277.2,95.5 283.3,95.5 283.3,97 275.6,97 	"/>
	<polygon class="st1" points="36.7,83 36.7,95.5 40.5,95.5 40.5,97 35.1,97 35.1,83 36.7,83 	"/>
	<polygon class="st1" points="186.9,84.4 186.9,97 185.3,97 185.3,84.4 181.9,84.4 181.9,83 190.3,83 190.3,84.4 186.9,84.4 	"/>
	<path class="st1" d="M137.5,84.4v5h0.5c1.1,0,1.9-0.1,2.4-0.4c0.7-0.4,1.1-1.1,1.1-2.1c0-1-0.4-1.8-1.1-2.1
		c-0.5-0.3-1.3-0.4-2.5-0.4H137.5L137.5,84.4z M137.5,90.8V97h-1.6V83h2c3.4,0,5.1,1.3,5.1,3.9c0,1.1-0.3,2-1,2.7
		c-0.6,0.7-1.5,1.1-2.6,1.2L144,97h-1.9l-4.2-6.2H137.5L137.5,90.8z"/>
	<path class="st1" d="M253.7,84.4v5h0.5c1.1,0,1.9-0.1,2.4-0.4c0.7-0.4,1.1-1.1,1.1-2.1c0-1-0.4-1.8-1.1-2.1
		c-0.5-0.3-1.3-0.4-2.5-0.4H253.7L253.7,84.4z M253.7,90.8V97h-1.6V83h2c3.4,0,5.1,1.3,5.1,3.9c0,1.1-0.3,2-0.9,2.7
		c-0.6,0.7-1.5,1.1-2.6,1.2l4.5,6.3h-1.9l-4.2-6.2H253.7L253.7,90.8z"/>
	<polygon class="st1" points="335.1,0 303.6,40.7 303.6,71.3 292.9,71.3 292.9,40.7 261.3,0 273.7,0 298.2,31.8 322.7,0 335.1,0 	
		"/>
</g>
</svg>
