<?xml version="1.0" encoding="utf-8"?>
<!-- Generator: Adobe Illustrator 22.1.0, SVG Export Plug-In . SVG Version: 6.00 Build 0)  -->
<svg version="1.1" id="Layer_1" xmlns="http://www.w3.org/2000/svg" xmlns:xlink="http://www.w3.org/1999/xlink" x="0px" y="0px"
	 viewBox="0 0 32 32" style="enable-background:new 0 0 32 32;" xml:space="preserve">
<style type="text/css">
	.st0{fill:#FFFFFF;}
</style>
<path class="st0" d="M30,0H2C0.9,0,0,0.9,0,2v28c0,1.1,0.9,2,2,2h28c1.1,0,2-0.9,2-2V2C32,0.9,31.1,0,30,0z M11,25H7V11h4V25z M9,10
	c-1.1,0-2-0.9-2-2s0.9-2,2-2s2,0.9,2,2S10.1,10,9,10z M25,25h-4v-8c0-1.3-0.7-2-2-2c-1.3,0-2,0.7-2,2v8h-4V11h4v2c0.2-1,0.7-2,3.5-2
	c4,0,4.5,3,4.5,7V25z"/>
</svg>
